<svg width="142" height="32" viewBox="0 0 142 32" fill="none" xmlns="http://www.w3.org/2000/svg">
<path d="M41.7381 20.1084C41.7381 21.0454 41.0184 21.8071 40.133 21.8071H29.1657C28.2804 21.8071 27.5607 21.0454 27.5607 20.1084V13.5969H24.3507V20.1084C24.3507 21.0454 23.631 21.8071 22.7456 21.8071H10.1712V13.5969H6.9612V26.7627C6.9612 27.7776 6.1822 28.6021 5.22328 28.6021H0.539062V31.9995H5.22123C7.9508 31.9995 10.1712 29.6494 10.1712 26.7605V25.2046H22.7456C23.9785 25.2046 25.1031 24.7112 25.9557 23.9019C26.8083 24.7112 27.9349 25.2046 29.1657 25.2046H40.133C42.789 25.2046 44.9481 22.9172 44.9481 20.1084V13.5969H41.7381V20.1084Z" fill="#2B44E7"/>
<path d="M44.9444 6.8009H41.7344V10.1984H44.9444V6.8009Z" fill="#2B44E7"/>
<path d="M40.128 6.8009H36.918V10.1984H40.128V6.8009Z" fill="#2B44E7"/>
<path d="M27.5577 6.8009H24.3477V10.1984H27.5577V6.8009Z" fill="#2B44E7"/>
<path d="M22.7491 6.8009H19.5391V10.1984H22.7491V6.8009Z" fill="#2B44E7"/>
<path d="M89.3504 20.1073C89.3504 21.0443 88.6307 21.806 87.7454 21.806H76.776C75.8907 21.806 75.171 21.0443 75.171 20.1073V6.8009H71.9609V20.1073C71.9609 22.9183 74.1201 25.2035 76.776 25.2035H87.7454C90.4013 25.2035 92.5604 22.9162 92.5604 20.1073V13.5958H89.3504V20.1073Z" fill="#2B44E7"/>
<path d="M60.0655 13.5961H56.8555V16.9935H60.0655V13.5961Z" fill="#2B44E7"/>
<path d="M83.8663 28.6024H80.6562V31.9999H83.8663V28.6024Z" fill="#2B44E7"/>
<path d="M98.9796 6.8009H95.7695V24.92H98.9796V6.8009Z" fill="#2B44E7"/>
<path d="M94.1705 0C91.5146 0 89.3555 2.28734 89.3555 5.09621V5.94882H92.5655V5.09621C92.5655 4.1592 93.2852 3.39747 94.1705 3.39747H102.196V0H94.1705Z" fill="#2B44E7"/>
<path d="M65.5398 26.9025C65.5398 27.8395 64.8201 28.6012 63.9347 28.6012H52.9674C52.0821 28.6012 51.3624 27.8395 51.3624 26.9025V20.391H48.1523V26.9025C48.1523 29.7135 50.3135 31.9987 52.9674 31.9987H63.9347C66.5907 31.9987 68.7498 29.7113 68.7498 26.9025V13.5961H65.5398V26.9025Z" fill="#2B44E7"/>
<path d="M141.254 0.77498L132.859 13.4397C132.659 13.7396 132.224 13.7396 132.024 13.4397L127.319 6.34484C127.154 6.09484 127.154 5.76485 127.319 5.51486L130.684 0.444989C130.869 0.164996 131.184 0 131.519 0H140.834C141.234 0 141.469 0.444988 141.249 0.77498H141.254Z" fill="#2B44E7"/>
<path d="M140.838 31.9992H131.523C131.188 31.9992 130.873 31.8292 130.688 31.5543L127.323 26.4844C127.158 26.2344 127.158 25.9044 127.323 25.6544L132.028 18.5596C132.228 18.2596 132.663 18.2596 132.863 18.5596L141.258 31.2243C141.478 31.5543 141.238 31.9992 140.843 31.9992H140.838Z" fill="#2B44E7"/>
<path d="M120.018 0H110.699C110.299 0 110.064 0.444989 110.284 0.77498L120.093 15.5846C120.258 15.8346 120.258 16.1596 120.093 16.4146L110.284 31.2242C110.064 31.5542 110.304 31.9992 110.699 31.9992H120.013C120.348 31.9992 120.663 31.8292 120.848 31.5542L130.888 16.4146C131.053 16.1646 131.053 15.8346 130.888 15.5846L120.848 0.444989C120.663 0.164996 120.348 0 120.013 0H120.018Z" fill="#2B44E7"/>
</svg>
